# xmcd
#
# Track frame offsets:
#	150
#	17020
#	34847
#	60206
#
# Disc length: 1445 seconds
#
# Revision: 1
# Processed by: cddbd v1.5.2PL0 Copyright (c) Steve Scherf et al.
# Submitted via: audiograbber 1.83.01
#
DISCID=2405a304
DTITLE=Pussycat Dolls - Wati A Minute
DYEAR=2007
DGENRE=R&B
TTITLE0=Wait A Minute (Album Version)
TTITLE1=Wait A Minute (Timbaland Version)
TTITLE2=Wati A Minute (Timbaland Instrumental)
TTITLE3=Daten-CD
EXTD=
EXTT0=
EXTT1=
EXTT2=
EXTT3=
PLAYORDER=
